<?xml version="1.0" encoding="UTF-8" standalone="no"?>
<!-- Generator: Adobe Illustrator 12.0.0, SVG Export Plug-In . SVG Version: 6.00 Build 51448)  -->
<svg
   xmlns:dc="http://purl.org/dc/elements/1.1/"
   xmlns:cc="http://web.resource.org/cc/"
   xmlns:rdf="http://www.w3.org/1999/02/22-rdf-syntax-ns#"
   xmlns:svg="http://www.w3.org/2000/svg"
   xmlns="http://www.w3.org/2000/svg"
   xmlns:sodipodi="http://sodipodi.sourceforge.net/DTD/sodipodi-0.dtd"
   xmlns:inkscape="http://www.inkscape.org/namespaces/inkscape"
   version="1.0"
   id="Layer_1"
   width="225"
   height="300"
   viewBox="0 0 206.82 284.094"
   overflow="visible"
   enable-background="new 0 0 206.82 284.094"
   xml:space="preserve"
   sodipodi:version="0.32"
   inkscape:version="0.45"
   sodipodi:docname="Klein Bottle 5.svg"
   inkscape:output_extension="org.inkscape.output.svg.inkscape"
   sodipodi:docbase="C:\Documents and Settings\JJB\My Documents\Temporary Files\Klein Bottle"
   sodipodi:modified="true"><metadata
   id="metadata6662"><rdf:RDF><cc:Work
       rdf:about=""><dc:format>image/svg+xml</dc:format><dc:type
         rdf:resource="http://purl.org/dc/dcmitype/StillImage" /></cc:Work></rdf:RDF></metadata><defs
   id="defs6660" /><sodipodi:namedview
   inkscape:window-height="874"
   inkscape:window-width="1337"
   inkscape:pageshadow="2"
   inkscape:pageopacity="0.0"
   guidetolerance="10.0"
   gridtolerance="10.0"
   objecttolerance="50"
   borderopacity="1.0"
   bordercolor="#666666"
   pagecolor="#ffffff"
   id="base"
   inkscape:object-nodes="false"
   inkscape:object-points="false"
   showgrid="true"
   inkscape:zoom="1.3270256"
   inkscape:cx="306.2438"
   inkscape:cy="193.12255"
   inkscape:window-x="99"
   inkscape:window-y="-4"
   inkscape:current-layer="Layer_1"
   height="300px"
   width="225px" />







<g
   transform="matrix(0.94698,0,0,0.94698,5.4829121,7.1974765)"
   id="g7899"><path
     id="path6698"
     d="M 188,21.093995 L 188,68.093996"
     style="fill:none;fill-rule:evenodd;stroke:#ff0000;stroke-width:1px;stroke-linecap:butt;stroke-linejoin:miter;stroke-opacity:1" /><path
     id="path6678"
     d="M 154.35609,13.036601 L 154.23,65.47"
     style="fill:none;fill-rule:evenodd;stroke:#000000;stroke-width:1px;stroke-linecap:butt;stroke-linejoin:miter;stroke-opacity:1" /><path
     id="path6680"
     d="M 194.31,12.473247 L 194.31,65.471"
     style="fill:none;fill-rule:evenodd;stroke:#000000;stroke-width:1px;stroke-linecap:butt;stroke-linejoin:miter;stroke-opacity:1" /><path
     sodipodi:nodetypes="cccccccccccccccccccccccccccccccccc"
     id="path6657"
     d="M 44.85,131.53 C 18.273,148.211 1.585,177.016 0.51,208.39 M 143.911,88.211 L 136.291,92.59 M 64.65,231.311 L 64.65,208.331 M 0.51,231.311 C 0.397,274.072 40.099,296.831 76.95,275.411 M 129.871,170.83 L 64.591,208.511 M 142.17,138.551 L 142.17,149.471 M 142.17,51.311 L 142.17,89.231 M 161.97,226.33 C 188.538,209.682 205.222,180.803 206.31,149.471 M 59.01,123.371 L 44.79,131.53 M 64.65,208.391 C 65.802,199.719 70.011,192.42 76.951,187.09 M 136.77,92.41 L 60.39,122.65 M 156.39,127.33 L 163.951,122.891 M 0.51,208.391 L 0.51,231.311 M 64.53,231.311 L 64.65,231.551 M 76.951,275.41 L 161.971,226.27 M 206.31,149.471 L 206.31,51.25 M 142.17,149.471 C 141.108,157.951 136.642,165.642 129.87,170.83"
     stroke-miterlimit="10"
     style="fill:none;stroke:#000000;stroke-width:1.01999998;stroke-linecap:round;stroke-linejoin:round;stroke-miterlimit:10" /><path
     style="fill:#000099;fill-opacity:1;fill-rule:evenodd;stroke:#000099;stroke-width:1px;stroke-linecap:butt;stroke-linejoin:miter;stroke-opacity:1"
     d="M 171.73233,67.750893 L 171.73233,71.750894 L 177.64512,69.750894 L 171.73233,67.750893 z "
     id="path2518" /><path
     style="fill:none;fill-opacity:1;fill-rule:nonzero;stroke:#000099;stroke-width:0.99999994;stroke-linecap:butt;stroke-miterlimit:4;stroke-dashoffset:20.00000238;stroke-opacity:1"
     d="M 194.25327,36.857102 C 201.59942,40.248155 206.30711,45.463333 206.30711,51.308951 C 206.30711,61.520951 191.94004,69.808951 174.23775,69.808951 C 156.53546,69.808951 142.16838,61.520951 142.16838,51.308951 C 142.16838,45.446799 146.90274,40.218659 154.28462,36.828372"
     id="path2520"
     sodipodi:nodetypes="cssscc" /><path
     style="fill:#ff0000;fill-rule:evenodd;stroke:#ff0000;stroke-width:1px;stroke-linecap:butt;stroke-linejoin:miter;stroke-opacity:1"
     d="M 200.34051,101.37313 L 196.34051,101.37313 L 198.34051,107.37313 L 200.34051,101.37313 z "
     id="path3502" /><path
     style="fill:none;stroke:#ff0000;stroke-width:1.01999998;stroke-linecap:round;stroke-linejoin:round;stroke-miterlimit:10"
     sodipodi:nodetypes="ccccccc"
     id="path6566"
     d="M 198.366,150.69296 L 198.366,63.486314 M 158.1077,218.93558 C 182.20185,204.19249 197.38814,178.46644 198.366,150.69385 M 49.774167,224.53814 C 49.725138,262.53988 47.413727,281.52512 80.914188,262.51226 L 158.98591,218.77691"
     stroke-miterlimit="10" /><path
     sodipodi:nodetypes="ccc"
     style="fill:none;stroke:#ff0000;stroke-width:1.01999998;stroke-linecap:round;stroke-linejoin:round;stroke-miterlimit:10"
     id="path6568"
     d="M 49.768919,224.54146 C 50.808516,196.65167 58.259207,179.36294 82.414187,164.49644 L 96.60649,158.59456 L 160,114.094 L 169.99999,109.094"
     stroke-miterlimit="10" /><path
     style="fill:#ff0000;fill-rule:evenodd;stroke:#ff0000;stroke-width:1px;stroke-linecap:butt;stroke-linejoin:miter;stroke-opacity:1"
     d="M 51.862757,237.52823 L 47.862757,237.52823 L 49.862757,231.52823 L 51.862757,237.52823 z "
     id="path6574" /><path
     sodipodi:nodetypes="cccccccccccccccc"
     id="path6645"
     d="M 156.75,127.03 C 167.454,117.416 150.516,88.006 136.77,92.41 M 163.951,122.95 C 171.216,118.381 172.835,111.234 167.85,104.291 C 164.554,99.684 159.306,95.614 154.65,92.471 L 151.65,90.611 L 150.27,89.831 L 148.951,89.171 L 147.81,88.692 L 146.79,88.332 L 145.89,88.092 L 145.11,87.973 L 144.451,88.033 L 143.911,88.273 M 76.951,187.09 L 91.11,178.811"
     stroke-miterlimit="10"
     style="fill:none;stroke:#000000;stroke-width:1.01999998;stroke-linecap:round;stroke-linejoin:round;stroke-miterlimit:10" /><path
     id="path6647"
     d="M 134.19,169.391 C 154.819,167.633 177.261,206.531 165.27,223.33 M 143.13,153.91 C 151.843,172.687 196.829,172.633 205.41,153.85"
     stroke-miterlimit="10"
     style="fill:none;stroke:#000000;stroke-width:0.47999999;stroke-linecap:round;stroke-linejoin:round;stroke-miterlimit:10" /><path
     id="path6651"
     d="M 63.69,235.75 C 54.811,254.487 10.178,254.471 1.411,235.69 M 68.07,226.99 C 78.341,236.141 89.279,259.705 80.251,272.41"
     stroke-miterlimit="10"
     style="fill:none;stroke:#000000;stroke-width:0.47999999;stroke-linecap:round;stroke-linejoin:round;stroke-miterlimit:10" /><line
     id="line6653"
     y2="126.971"
     x2="156.75"
     y1="178.03"
     x1="92.43"
     stroke-miterlimit="10"
     style="fill:none;stroke:#000000;stroke-width:1.01999998;stroke-linecap:round;stroke-linejoin:round;stroke-miterlimit:10" /><path
     id="path6655"
     d="M 63.63,212.83 C 55.063,231.523 10.109,231.609 1.41,212.77 M 0.51,208.391 L 0.57,208.451 M 80.31,184.03 C 92.155,167.129 69.689,128.181 49.11,130.15 M 44.85,131.53 L 44.911,131.59"
     stroke-miterlimit="10"
     style="fill:none;stroke:#000000;stroke-width:0.47999999;stroke-linecap:round;stroke-linejoin:round;stroke-miterlimit:10" /><g
     transform="translate(3.4132915e-3,32.128607)"
     id="g6576"><path
       id="path6556"
       d="M 90.169951,104.88814 L 86.893103,107.18211 L 91.922463,110.87895 L 90.169951,104.88814 z "
       style="fill:#000099;fill-opacity:1;fill-rule:evenodd;stroke:#000099;stroke-width:1px;stroke-linecap:butt;stroke-linejoin:miter;stroke-opacity:1"
       inkscape:transform-center-y="-3.2982434"
       inkscape:transform-center-x="-0.1597015" /><path
       stroke-miterlimit="10"
       d="M 91.081639,109.71246 C 85.849639,100.07546 71.083642,84.898458 58.981642,91.233458 M 91.081639,146.73345 C 102.62864,139.48245 96.792639,118.97446 91.081639,109.71246"
       id="path5585"
       sodipodi:nodetypes="cccc"
       style="fill:none;stroke:#000099;stroke-width:1.01999998;stroke-linecap:round;stroke-linejoin:round;stroke-miterlimit:10;stroke-opacity:1" /></g><path
     style="fill:#000099;fill-opacity:1;fill-rule:evenodd;stroke:#000099;stroke-width:1px;stroke-linecap:butt;stroke-linejoin:miter;stroke-opacity:1"
     d="M 171.30434,21.949645 L 171.30434,25.949646 L 177.21713,23.949646 L 171.30434,21.949645 z "
     id="path6690" /><path
     id="path6692"
     d="M 194.31411,12.655869 C 194.31411,18.976785 185.36037,24.106806 174.32809,24.106806 C 163.29581,24.106806 154.34207,18.976785 154.34207,12.655869 C 154.34207,6.3349506 163.29581,1.2049304 174.32809,1.2049304 C 185.36037,1.2049304 194.31411,6.3349506 194.31411,12.655869 z "
     style="fill:none;fill-opacity:1;fill-rule:nonzero;stroke:#000099;stroke-width:0.99999988;stroke-linecap:butt;stroke-miterlimit:4;stroke-dashoffset:20.00000238;stroke-opacity:1" /><path
     style="fill:#ff0000;fill-rule:evenodd;stroke:#ff0000;stroke-width:1px;stroke-linecap:butt;stroke-linejoin:miter;stroke-opacity:1"
     d="M 190,45.593992 L 186,45.593992 L 188,39.593995 L 190,45.593992 z "
     id="path6710" /></g></svg>