<?xml version="1.0" encoding="UTF-8" standalone="no"?>
<!-- Generator: Adobe Illustrator 12.0.0, SVG Export Plug-In . SVG Version: 6.00 Build 51448)  -->
<svg
   xmlns:dc="http://purl.org/dc/elements/1.1/"
   xmlns:cc="http://web.resource.org/cc/"
   xmlns:rdf="http://www.w3.org/1999/02/22-rdf-syntax-ns#"
   xmlns:svg="http://www.w3.org/2000/svg"
   xmlns="http://www.w3.org/2000/svg"
   xmlns:sodipodi="http://sodipodi.sourceforge.net/DTD/sodipodi-0.dtd"
   xmlns:inkscape="http://www.inkscape.org/namespaces/inkscape"
   version="1.0"
   id="Layer_1"
   width="225"
   height="300"
   viewBox="0 0 206.82 293.709"
   overflow="visible"
   enable-background="new 0 0 206.82 293.709"
   xml:space="preserve"
   sodipodi:version="0.32"
   inkscape:version="0.45"
   sodipodi:docname="Klein Bottle 6.svg"
   inkscape:output_extension="org.inkscape.output.svg.inkscape"
   sodipodi:docbase="C:\Documents and Settings\JJB\My Documents\Temporary Files\Klein Bottle"
   sodipodi:modified="true"><metadata
   id="metadata2411"><rdf:RDF><cc:Work
       rdf:about=""><dc:format>image/svg+xml</dc:format><dc:type
         rdf:resource="http://purl.org/dc/dcmitype/StillImage" /></cc:Work></rdf:RDF></metadata><defs
   id="defs2409" /><sodipodi:namedview
   inkscape:window-height="874"
   inkscape:window-width="1337"
   inkscape:pageshadow="2"
   inkscape:pageopacity="0.0"
   guidetolerance="10.0"
   gridtolerance="10.0"
   objecttolerance="10.0"
   borderopacity="1.0"
   bordercolor="#666666"
   pagecolor="#ffffff"
   id="base"
   showgrid="false"
   inkscape:zoom="1.2835833"
   inkscape:cx="195.85509"
   inkscape:cy="224.30427"
   inkscape:window-x="99"
   inkscape:window-y="-4"
   inkscape:current-layer="Layer_1"
   width="225px"
   height="300px" />

<g
   transform="matrix(0.97903,0,0,0.97903,2.1680515,3.0790578)"
   id="g7701"><path
     sodipodi:nodetypes="csc"
     id="path6724"
     d="M 187.98949,27.493846 C 194.32467,24.188537 197.62998,29.421944 197.62998,34.379908 C 197.62998,39.337873 197.62998,45.67305 197.62998,45.67305"
     style="fill:none;fill-rule:evenodd;stroke:#ff0000;stroke-width:1px;stroke-linecap:butt;stroke-linejoin:miter;stroke-opacity:1" /><path
     style="fill:none;stroke:#ff0000;stroke-width:1.01999998;stroke-linecap:round;stroke-linejoin:round;stroke-miterlimit:10"
     sodipodi:nodetypes="ccccccc"
     id="path6566"
     d="M 198.26673,160.32106 L 198.26673,73.114412 M 158.00843,228.56368 C 182.10258,213.82059 197.28887,188.09454 198.26673,160.32195 M 49.674902,234.16624 C 49.625872,272.16798 47.314462,291.15322 80.814922,272.14036 L 158.88664,228.40501"
     stroke-miterlimit="10" /><path
     id="path6698"
     d="M 187.90073,49.5926 L 187.90073,77.680041"
     style="fill:none;fill-rule:evenodd;stroke:#ff0000;stroke-width:1px;stroke-linecap:butt;stroke-linejoin:miter;stroke-opacity:1" /><g
     id="XMLID_1_">
	<g
   id="g2314">
	</g>
	<g
   id="g2316">
		
			<path
   id="path2318"
   d="M 156.09,17.423 C 162.72,7.944 185.96,7.953 192.45,17.484"
   stroke-miterlimit="10"
   style="fill:none;stroke:#000000;stroke-width:0.47999999;stroke-linecap:round;stroke-linejoin:round;stroke-miterlimit:10" />
		
			
		
			
		
			
		
			
		
			<line
   id="line2328"
   y2="75.083"
   x2="154.23"
   y1="47.563"
   x1="154.23"
   stroke-miterlimit="10"
   style="fill:none;stroke:#000000;stroke-width:1.01999998;stroke-linecap:round;stroke-linejoin:round;stroke-miterlimit:10" />
		
			<line
   id="line2330"
   y2="47.553001"
   x2="154.23"
   y1="47.542999"
   x1="154.23"
   stroke-miterlimit="10"
   style="fill:none;stroke:#000000;stroke-width:1.01999998;stroke-linecap:round;stroke-linejoin:round;stroke-miterlimit:10" />
		
			<polyline
   id="polyline2332"
   points="    194.311,75.083 194.311,47.543 194.311,47.483   "
   stroke-miterlimit="10"
   style="fill:none;stroke:#000000;stroke-width:1.01999998;stroke-linecap:round;stroke-linejoin:round;stroke-miterlimit:10" />
		
			<path
   id="path2334"
   d="M 134.19,179.003 C 154.82,177.243 177.26,216.143 165.27,232.943"
   stroke-miterlimit="10"
   style="fill:none;stroke:#000000;stroke-width:0.47999999;stroke-linecap:round;stroke-linejoin:round;stroke-miterlimit:10" />
		
			<path
   id="path2336"
   d="M 143.13,163.523 C 151.85,182.293 196.83,182.243 205.41,163.462"
   stroke-miterlimit="10"
   style="fill:none;stroke:#000000;stroke-width:0.47999999;stroke-linecap:round;stroke-linejoin:round;stroke-miterlimit:10" />
		
			<polyline
   id="polyline2338"
   points="    206.311,159.083 206.311,60.923 206.311,60.863   "
   stroke-miterlimit="10"
   style="fill:none;stroke:#000000;stroke-width:1.01999998;stroke-linecap:round;stroke-linejoin:round;stroke-miterlimit:10" />
		
			<path
   id="path2340"
   d="M 142.17,159.083 C 142,160.453 141.74,161.783 141.4,163.083 C 139.91,168.983 136.81,174.183 132.33,178.353 C 131.55,179.083 130.73,179.784 129.87,180.444"
   stroke-miterlimit="10"
   style="fill:none;stroke:#000000;stroke-width:1.01999998;stroke-linecap:round;stroke-linejoin:round;stroke-miterlimit:10" />
		
			<path
   id="path2342"
   d="M 63.69,245.363 C 54.81,264.092 10.18,264.083 1.41,245.302"
   stroke-miterlimit="10"
   style="fill:none;stroke:#000000;stroke-width:0.47999999;stroke-linecap:round;stroke-linejoin:round;stroke-miterlimit:10" />
		
			<path
   id="path2344"
   d="M 68.07,236.603 C 78.34,245.753 89.28,269.314 80.25,282.024"
   stroke-miterlimit="10"
   style="fill:none;stroke:#000000;stroke-width:0.47999999;stroke-linecap:round;stroke-linejoin:round;stroke-miterlimit:10" />
		
			<polyline
   id="polyline2346"
   points="    0.51,218.003 0.51,222.383 0.51,240.923   "
   stroke-miterlimit="10"
   style="fill:none;stroke:#000000;stroke-width:1.01999998;stroke-linecap:round;stroke-linejoin:round;stroke-miterlimit:10" />
		
			<line
   id="line2348"
   y2="241.16299"
   x2="64.650002"
   y1="240.923"
   x1="64.529999"
   stroke-miterlimit="10"
   style="fill:none;stroke:#000000;stroke-width:1.01999998;stroke-linecap:round;stroke-linejoin:round;stroke-miterlimit:10" />
		
			<line
   id="line2350"
   y2="235.883"
   x2="161.97099"
   y1="285.02301"
   x1="76.949997"
   stroke-miterlimit="10"
   style="fill:none;stroke:#000000;stroke-width:1.01999998;stroke-linecap:round;stroke-linejoin:round;stroke-miterlimit:10" />
		
			<line
   id="line2352"
   y2="159.08299"
   x2="142.17"
   y1="148.16299"
   x1="142.17"
   stroke-miterlimit="10"
   style="fill:none;stroke:#000000;stroke-width:1.01999998;stroke-linecap:round;stroke-linejoin:round;stroke-miterlimit:10" />
		
			<polyline
   id="polyline2354"
   points="    142.17,60.923 142.17,98.823 142.17,98.843   "
   stroke-miterlimit="10"
   style="fill:none;stroke:#000000;stroke-width:1.01999998;stroke-linecap:round;stroke-linejoin:round;stroke-miterlimit:10" />
		
			<path
   id="path2356"
   d="M 161.971,235.943 C 161.981,235.932 161.991,235.932 162,235.922 C 163.24,235.142 164.46,234.342 165.66,233.502 C 188.85,217.422 203.77,191.582 206.06,163.462 C 206.18,162.012 206.26,160.552 206.31,159.082"
   stroke-miterlimit="10"
   style="fill:none;stroke:#000000;stroke-width:1.01999998;stroke-linecap:round;stroke-linejoin:round;stroke-miterlimit:10" />
		
			<path
   id="path2358"
   d="M 63.63,222.443 C 55.07,241.132 10.11,241.213 1.41,222.382"
   stroke-miterlimit="10"
   style="fill:none;stroke:#000000;stroke-width:0.47999999;stroke-linecap:round;stroke-linejoin:round;stroke-miterlimit:10" />
		
			<line
   id="line2360"
   y2="218.063"
   x2="0.56999999"
   y1="218.00301"
   x1="0.50999999"
   stroke-miterlimit="10"
   style="fill:none;stroke:#000000;stroke-width:0.47999999;stroke-linecap:round;stroke-linejoin:round;stroke-miterlimit:10" />
		
			<path
   id="path2362"
   d="M 80.311,193.583 C 92.171,176.763 69.671,137.773 49.111,139.763"
   stroke-miterlimit="10"
   style="fill:none;stroke:#000000;stroke-width:0.47999999;stroke-linecap:round;stroke-linejoin:round;stroke-miterlimit:10" />
		
			<line
   id="line2364"
   y2="141.203"
   x2="44.91"
   y1="141.14301"
   x1="44.851002"
   stroke-miterlimit="10"
   style="fill:none;stroke:#000000;stroke-width:0.47999999;stroke-linecap:round;stroke-linejoin:round;stroke-miterlimit:10" />
		
			<polyline
   id="polyline2366"
   points="    143.91,97.823 142.17,98.823 136.291,102.203   "
   stroke-miterlimit="10"
   style="fill:none;stroke:#000000;stroke-width:1.01999998;stroke-linecap:round;stroke-linejoin:round;stroke-miterlimit:10" />
		
			<line
   id="line2368"
   y2="132.50301"
   x2="163.95"
   y1="136.94299"
   x1="156.39"
   stroke-miterlimit="10"
   style="fill:none;stroke:#000000;stroke-width:1.01999998;stroke-linecap:round;stroke-linejoin:round;stroke-miterlimit:10" />
		
			<polyline
   id="polyline2370"
   points="    136.771,102.023 136.291,102.213 60.48,132.233 60.39,132.263   "
   stroke-miterlimit="10"
   style="fill:none;stroke:#000000;stroke-width:1.01999998;stroke-linecap:round;stroke-linejoin:round;stroke-miterlimit:10" />
		
			<polyline
   id="polyline2372"
   points="    92.43,187.643 142.17,148.163 156.351,136.893 156.75,136.583   "
   stroke-miterlimit="10"
   style="fill:none;stroke:#000000;stroke-width:1.01999998;stroke-linecap:round;stroke-linejoin:round;stroke-miterlimit:10" />
		
			<path
   id="path2374"
   d="M 163.95,132.563 C 163.96,132.552 163.971,132.552 163.98,132.542 C 171.22,127.972 172.83,120.832 167.85,113.902 C 164.56,109.292 159.31,105.221 154.65,102.082 L 151.65,100.222 L 150.27,99.443 L 148.95,98.783 L 147.81,98.303 L 146.79,97.944 L 145.89,97.704 L 145.11,97.584 L 144.45,97.644 L 143.93,97.874 L 143.91,97.884"
   stroke-miterlimit="10"
   style="fill:none;stroke:#000000;stroke-width:1.01999998;stroke-linecap:round;stroke-linejoin:round;stroke-miterlimit:10" />
		
			<path
   id="path2376"
   d="M 156.75,136.643 C 156.76,136.633 156.77,136.623 156.78,136.614 C 167.43,126.964 150.51,97.614 136.77,102.024"
   stroke-miterlimit="10"
   style="fill:none;stroke:#000000;stroke-width:1.01999998;stroke-linecap:round;stroke-linejoin:round;stroke-miterlimit:10" />
		
			<polyline
   id="polyline2378"
   points="    76.95,196.703 80.811,194.443 91.11,188.423   "
   stroke-miterlimit="10"
   style="fill:none;stroke:#000000;stroke-width:1.01999998;stroke-linecap:round;stroke-linejoin:round;stroke-miterlimit:10" />
		
			<path
   id="path2380"
   d="M 44.851,141.143 C 18.251,157.883 1.661,186.593 0.511,218.003"
   stroke-miterlimit="10"
   style="fill:none;stroke:#000000;stroke-width:1.01999998;stroke-linecap:round;stroke-linejoin:round;stroke-miterlimit:10" />
		
			<polyline
   id="polyline2382"
   points="    59.01,132.983 48.64,138.933 44.84,141.113 44.791,141.143   "
   stroke-miterlimit="10"
   style="fill:none;stroke:#000000;stroke-width:1.01999998;stroke-linecap:round;stroke-linejoin:round;stroke-miterlimit:10" />
		
			<path
   id="path2384"
   d="M 64.65,218.003 C 65.62,209.613 70.22,201.774 76.95,196.703"
   stroke-miterlimit="10"
   style="fill:none;stroke:#000000;stroke-width:1.01999998;stroke-linecap:round;stroke-linejoin:round;stroke-miterlimit:10" />
		
			
		
			<polyline
   id="polyline2388"
   points="    64.65,240.923 64.65,222.443 64.65,218.093 64.65,218.003 64.65,217.943   "
   stroke-miterlimit="10"
   style="fill:none;stroke:#000000;stroke-width:1.01999998;stroke-linecap:round;stroke-linejoin:round;stroke-miterlimit:10" />
		
			<path
   id="path2390"
   d="M 0.51,240.923 C 0.45,283.734 40.06,306.433 76.95,285.024"
   stroke-miterlimit="10"
   style="fill:none;stroke:#000000;stroke-width:1.01999998;stroke-linecap:round;stroke-linejoin:round;stroke-miterlimit:10" />
		
			<polyline
   id="polyline2392"
   points="    129.87,180.443 64.65,218.093 64.59,218.123   "
   stroke-miterlimit="10"
   style="fill:none;stroke:#000000;stroke-width:1.01999998;stroke-linecap:round;stroke-linejoin:round;stroke-miterlimit:10" />
		
			
		
			<path
   id="path2396"
   d="M 152.851,5.723 C 146.661,8.803 142.521,14.694 142.231,21.683"
   stroke-miterlimit="10"
   style="fill:none;stroke:#000000;stroke-width:1.01999998;stroke-linecap:round;stroke-linejoin:round;stroke-miterlimit:10" />
		
			<polyline
   id="polyline2398"
   points="    142.17,21.683 142.17,26.003 142.17,33.083   "
   stroke-miterlimit="10"
   style="fill:none;stroke:#000000;stroke-width:1.01999998;stroke-linecap:round;stroke-linejoin:round;stroke-miterlimit:10" />
		
			<path
   id="path2400"
   d="M 206.311,21.623 C 206.241,11.403 196.581,4.863 187.651,2.363 C 176.551,-0.827 163.011,-0.017 152.851,5.722"
   stroke-miterlimit="10"
   style="fill:none;stroke:#000000;stroke-width:1.01999998;stroke-linecap:round;stroke-linejoin:round;stroke-miterlimit:10" />
		
			<polyline
   id="polyline2402"
   points="    206.311,33.083 206.311,26.123 206.311,21.683 206.311,21.623   "
   stroke-miterlimit="10"
   style="fill:none;stroke:#000000;stroke-width:1.01999998;stroke-linecap:round;stroke-linejoin:round;stroke-miterlimit:10" />
		
			<path
   id="path2404"
   d="M 193.891,21.623 C 193.991,23.623 191.161,25.843 189.63,26.723 C 185.051,29.333 179.681,30.293 174.45,30.383 C 169.39,30.723 155.43,28.024 154.65,21.623"
   stroke-miterlimit="10"
   style="fill:none;stroke:#000000;stroke-width:1.01999998;stroke-linecap:round;stroke-linejoin:round;stroke-miterlimit:10" />
		
			<path
   style="fill:none;stroke:#000099;stroke-width:1.01999998;stroke-linecap:round;stroke-linejoin:round;stroke-miterlimit:10;stroke-opacity:1"
   id="path2406"
   d="M 206.311,33.083 C 206.061,39.493 201.431,44.023 195.451,47.003 C 195.331,47.064 195.211,47.113 195.092,47.183 C 194.831,47.303 194.571,47.423 194.312,47.543 C 187.711,50.533 179.772,51.763 174.272,51.623 C 168.692,51.743 160.802,50.533 154.232,47.563 L 154.232,47.552 C 153.952,47.432 153.682,47.302 153.402,47.172 C 153.302,47.122 153.192,47.063 153.082,47.012 C 147.142,44.042 142.522,39.523 142.172,33.082"
   stroke-miterlimit="10" />
	<path
   id="path2394"
   d="M 205.351,26.123 C 196.681,44.803 151.661,44.833 143.131,26.003"
   stroke-miterlimit="10"
   style="fill:none;stroke:#000000;stroke-width:0.47999999;stroke-linecap:round;stroke-linejoin:round;stroke-miterlimit:10" /></g>
</g><path
     style="fill:#000099;fill-opacity:1;fill-rule:evenodd;stroke:#000099;stroke-width:1px;stroke-linecap:butt;stroke-linejoin:miter;stroke-opacity:1"
     d="M 171.63306,77.378991 L 171.63306,81.378992 L 177.54585,79.378992 L 171.63306,77.378991 z "
     id="path2518" /><path
     style="fill:#ff0000;fill-rule:evenodd;stroke:#ff0000;stroke-width:1px;stroke-linecap:butt;stroke-linejoin:miter;stroke-opacity:1"
     d="M 200.24124,111.00122 L 196.24124,111.00122 L 198.24124,117.00122 L 200.24124,111.00122 z "
     id="path3502" /><path
     sodipodi:nodetypes="ccc"
     style="fill:none;stroke:#ff0000;stroke-width:1.01999998;stroke-linecap:round;stroke-linejoin:round;stroke-miterlimit:10"
     id="path6568"
     d="M 49.669652,234.16956 C 50.709242,206.27977 58.159942,188.99104 82.314922,174.12454 L 96.507222,168.22266 L 159.90073,123.72209 L 169.90072,118.72209"
     stroke-miterlimit="10" /><path
     style="fill:#ff0000;fill-rule:evenodd;stroke:#ff0000;stroke-width:1px;stroke-linecap:butt;stroke-linejoin:miter;stroke-opacity:1"
     d="M 51.763492,247.15633 L 47.763492,247.15633 L 49.763492,241.15633 L 51.763492,247.15633 z "
     id="path6574" /><g
     transform="translate(-9.5858267e-2,41.756704)"
     id="g6576"><path
       id="path6556"
       d="M 90.169951,104.88814 L 86.893103,107.18211 L 91.922463,110.87895 L 90.169951,104.88814 z "
       style="fill:#000099;fill-opacity:1;fill-rule:evenodd;stroke:#000099;stroke-width:1px;stroke-linecap:butt;stroke-linejoin:miter;stroke-opacity:1"
       inkscape:transform-center-y="-3.2982434"
       inkscape:transform-center-x="-0.1597015" /><path
       stroke-miterlimit="10"
       d="M 91.081639,109.71246 C 85.849639,100.07546 71.083642,84.898458 58.981642,91.233458 M 91.081639,146.73345 C 102.62864,139.48245 96.792639,118.97446 91.081639,109.71246"
       id="path5585"
       sodipodi:nodetypes="cccc"
       style="fill:none;stroke:#000099;stroke-width:1.01999998;stroke-linecap:round;stroke-linejoin:round;stroke-miterlimit:10;stroke-opacity:1" /></g><path
     style="fill:#ff0000;fill-rule:evenodd;stroke:#ff0000;stroke-width:1px;stroke-linecap:butt;stroke-linejoin:miter;stroke-opacity:1"
     d="M 189.90073,69.73225 L 185.90073,69.73225 L 187.90073,63.732253 L 189.90073,69.73225 z "
     id="path6710" /><path
     style="fill:#ff0000;fill-rule:evenodd;stroke:#ff0000;stroke-width:1px;stroke-linecap:butt;stroke-linejoin:miter;stroke-opacity:1"
     d="M 199.69757,36.952726 L 195.69757,36.952726 L 197.69757,42.952723 L 199.69757,36.952726 z "
     id="path6726" /><path
     style="fill:none;fill-opacity:1;fill-rule:nonzero;stroke:#000099;stroke-width:0.99999994;stroke-linecap:butt;stroke-miterlimit:4;stroke-dashoffset:20.00000238;stroke-opacity:1"
     d="M 195.49464,47.139357 C 202.06798,50.527947 206.20784,55.455299 206.20784,60.937049 C 206.20784,71.149049 191.84077,79.437049 174.13848,79.437049 C 156.43619,79.437049 142.06911,71.149049 142.06911,60.937049 C 142.06911,55.361031 146.35258,50.358643 153.12358,46.96591"
     id="path2520"
     sodipodi:nodetypes="cssss" /><path
     style="fill:#000099;fill-opacity:1;fill-rule:evenodd;stroke:#000099;stroke-width:1px;stroke-linecap:butt;stroke-linejoin:miter;stroke-opacity:1"
     d="M 171.62628,49.562416 L 171.62628,53.562417 L 177.53907,51.562417 L 171.62628,49.562416 z "
     id="path7699" /></g></svg>